
<svg width="1500" height="177" viewBox="0 0 1500 177" fill="none" xmlns="http://www.w3.org/2000/svg">
<path d="M1717.15 176.034L1718 174.553L1260.7 0.0818396L1260.28 0.818346V0H260.684V0.106389L99.5205 61.1714L-29.5225 110.084H-29.6626V110.133L-202 175.47L-201.19 176.935L-114.801 144.201H-36.3548L-111.38 175.371L-110.469 176.828L-31.9433 144.201H52.3648L-14.4575 175.462L-13.4572 176.877L56.4061 144.201H140.824L82.3248 175.462L83.4151 176.828L144.485 144.201H229.294L179.127 175.511L180.347 176.812L232.595 144.201H317.573L275.809 175.462L277.16 176.673L320.544 144.201H406.203L372.682 175.552L374.192 176.624L408.854 144.201H494.522L469.284 175.666L470.954 176.566L496.913 144.201H582.942L566.046 175.789L567.887 176.444L585.132 144.201H671.381L662.898 175.912L664.849 176.263L673.422 144.201H759.691V176.116H761.691V144.201H847.96L856.543 176.288L858.543 175.936L850.011 144.201H936.179L953.435 176.452L955.266 175.797L938.38 144.201H1024.41L1050.33 176.517L1052 175.617L1026.76 144.201H1112.53L1147.21 176.632L1148.72 175.56L1115.19 144.201H1200.67L1244.09 176.689L1245.44 175.478L1203.63 144.201H1288.79L1341.03 176.771L1342.25 175.47L1292.09 144.201H1376.9L1437.92 176.804L1439.01 175.437L1380.53 144.201H1464.95L1534.97 176.935L1535.97 175.511L1468.95 144.168H1553.11L1631.68 176.812L1632.59 175.355L1557.59 144.201H1633.72L1717.15 176.034ZM164.052 62.808H226.463L182.318 83.4467H114.355L164.052 62.808ZM109.934 83.4467H45.5025L99.9606 62.808H159.631L109.934 83.4467ZM261.404 1.61214H306.96L281.711 12.0952H233.745L261.404 1.61214ZM1324.04 26.0479H1273.24L1243.6 13.7319H1291.75L1324.04 26.0479ZM357.316 1.61214L334.899 12.0952H286.163L311.401 1.61214H357.316ZM407.673 1.61214L388.057 12.0952H338.93L361.348 1.61214H407.673ZM458.02 1.61214L441.214 12.0952H391.718L411.324 1.61214H458.02ZM508.137 1.61214L494.132 12.087H444.505L461.321 1.61214H508.137ZM558.674 1.61214L547.47 12.087H497.093L511.098 1.61214H558.674ZM608.85 1.61214L600.447 12.087H550.131L561.334 1.61214H608.85ZM659.167 1.61214L653.565 12.087H602.838L611.241 1.61214H659.167ZM709.494 1.61214L706.693 12.0788H655.756L661.348 1.60396L709.494 1.61214ZM759.691 1.61214V12.0788H708.744L711.544 1.61214H759.691ZM809.837 1.61214L812.638 12.0788H761.691V1.62851L809.837 1.61214ZM859.944 1.61214L865.546 12.0788H814.689L811.888 1.61214H859.944ZM910.021 1.61214L918.413 12.0788H867.727L862.135 1.61214H910.021ZM960.037 1.61214L971.231 12.0788H920.784L912.371 1.62851L960.037 1.61214ZM1010.05 1.61214L1024.06 12.0706H973.902L962.708 1.60396L1010.05 1.61214ZM1060.07 1.61214L1076.86 12.0706H1027.02L1013.02 1.61214H1060.07ZM1110.09 1.61214L1129.65 12.0706H1080.17L1063.42 1.63669L1110.09 1.61214ZM1160.1 1.61214L1182.46 12.0952H1133.34L1113.76 1.63669L1160.1 1.61214ZM476.226 27.6846H530.774L515.239 42.2839H456.75L476.226 27.6846ZM453.759 42.2839H396.079L419.497 27.6846H473.295L453.759 42.2839ZM533.425 27.6846H587.913L576.259 42.2839H517.85L533.425 27.6846ZM590.314 27.6846H645.282L637.48 42.2839H578.64L590.314 27.6846ZM647.333 27.6846H702.451L698.55 42.2839H639.531L647.333 27.6846ZM704.492 27.6846H759.61V42.2839H700.591L704.492 27.6846ZM761.611 27.6846H816.73L820.631 42.2839H761.611V27.6846ZM818.78 27.6846H873.799L881.611 42.2839H822.682L818.78 27.6846ZM875.989 27.6846H930.838L942.542 42.2839H883.792L875.989 27.6846ZM933.228 27.6846H987.847L1003.45 42.2839H944.942L933.228 27.6846ZM990.507 27.6846H1044.84L1064.34 42.2839H1006.11L990.507 27.6846ZM1047.8 27.6846H1101.81L1125.23 42.2839H1067.42L1047.8 27.6846ZM1105.11 27.6846H1158.76L1186.08 42.2839H1128.52L1105.11 27.6846ZM1102.48 26.0479L1082.72 13.7319H1132.65L1155.66 26.0479H1102.48ZM1099.18 26.0479H1045.61L1029.14 13.7319H1079.42L1099.18 26.0479ZM1042.64 26.0479H988.757L975.582 13.7319H1026.18L1042.64 26.0479ZM986.096 26.0479H931.918L922.035 13.7319H972.922L986.096 26.0479ZM929.527 26.0479H875.109L868.527 13.7319H919.644L929.527 26.0479ZM872.928 26.0479H818.34L815.049 13.7319H866.336L872.928 26.0479ZM816.289 26.0479H761.691V13.7319H813.078L816.289 26.0479ZM759.61 26.0479H705.012L708.303 13.7319H759.691L759.61 26.0479ZM702.882 26.0479H648.283L654.866 13.7319H706.303L702.882 26.0479ZM646.033 26.0479H591.655L601.528 13.7319H652.695L646.033 26.0479ZM589.184 26.0479H535.246L548.42 13.7319H599.177L589.184 26.0479ZM532.475 26.0479H478.447L494.912 13.7319H545.719L532.475 26.0479ZM475.456 26.0479H422.128L441.885 13.7319H491.901L475.456 26.0479ZM418.797 26.0479H365.599L388.607 13.7319H438.544L418.797 26.0479ZM416.166 27.6846L392.758 42.2839H335.179L362.498 27.6846H416.166ZM390.157 43.9206L362.488 61.1714H299.877L332.178 43.9206H390.157ZM393.458 43.9206H451.598L428.59 61.1714H365.789L393.458 43.9206ZM454.569 43.9206H513.438L494.992 61.1714H431.511L454.569 43.9206ZM516.099 43.9206H574.929L561.104 61.1714H497.653L516.099 43.9206ZM577.32 43.9206H636.56L627.336 61.1714H563.495L577.32 43.9206ZM638.74 43.9206H698.19L693.579 61.1714H629.557L638.74 43.9206ZM700.231 43.9206H759.691V61.1714H695.669L700.231 43.9206ZM761.691 43.9206H821.151L825.763 61.1714H761.691V43.9206ZM823.192 43.9206H882.561L891.785 61.1714H827.763L823.192 43.9206ZM884.742 43.9206H943.942L957.777 61.1714H893.965L884.742 43.9206ZM946.333 43.9206H1005.28L1023.73 61.1714H960.167L946.333 43.9206ZM1007.94 43.9206H1066.61L1089.62 61.1714H1026.41L1007.94 43.9206ZM1069.57 43.9206H1127.92L1155.6 61.1714H1092.64L1069.57 43.9206ZM1131.22 43.9206H1189.24L1221.47 61.1714H1158.85L1131.22 43.9206ZM1192.89 43.9206H1250.48L1287.38 61.1714H1225.14L1192.89 43.9206ZM1254.55 43.9206H1311.83L1353.35 61.1714H1291.44L1254.55 43.9206ZM1251.04 42.2839L1219.82 27.6846H1272.76L1307.89 42.2839H1251.04ZM1247.04 42.2839H1189.85L1162.53 27.6846H1215.82L1247.04 42.2839ZM1159.45 26.0479L1136.45 13.7319H1186.01L1212.36 26.0479H1159.45ZM331.408 13.7319L305.059 26.0479H252.542L282.161 13.7319H331.408ZM335.409 13.7319H384.996L361.988 26.0479H309.09L335.409 13.7319ZM358.847 27.6846L331.528 42.2839H274.379L305.589 27.6846H358.847ZM328.467 43.9206L296.196 61.1714H233.995L270.878 43.9206H328.467ZM293.165 62.808L254.542 83.4467H186.349L230.494 62.808H293.165ZM296.826 62.808H359.847L326.736 83.4467H258.153L296.826 62.808ZM363.178 62.808H426.369L398.79 83.4467H330.067L363.178 62.808ZM429.34 62.808H493.232L471.224 83.4467H401.741L429.34 62.808ZM495.913 62.808H559.794L543.248 83.4467H473.835L495.913 62.808ZM562.195 62.808H626.476L615.472 83.4467H545.629L562.195 62.808ZM628.657 62.808H693.148L687.637 83.4467H617.613L628.657 62.808ZM695.199 62.808H759.701V83.4467H689.677L695.199 62.808ZM761.701 62.808H826.213L831.725 83.4467H761.701V62.808ZM828.253 62.808H892.675L903.679 83.4467H833.745L828.253 62.808ZM894.856 62.808H959.097L975.643 83.4467H905.889L894.856 62.808ZM961.488 62.808H1025.51L1047.58 83.4467H978.063L961.488 62.808ZM1028.15 62.808H1091.87L1119.44 83.4467H1050.21L1028.15 62.808ZM1094.83 62.808H1158.23L1191.33 83.4467H1122.44L1094.83 62.808ZM1161.53 62.808H1224.56L1263.17 83.4467H1194.61L1161.53 62.808ZM1228.25 62.808H1290.92L1335.04 83.4467H1266.86L1228.25 62.808ZM1294.95 62.808H1357.3L1406.96 83.4467H1339.07L1294.95 62.808ZM1361.72 62.808H1420.4L1474.48 83.4467H1411.38L1361.72 62.808ZM1357.78 61.1714L1316.27 43.9206H1370.88L1416.11 61.1714H1357.78ZM1312.32 42.2839L1277.19 27.6846H1328.34L1366.6 42.2839H1312.32ZM1268.84 26.0479H1216.34L1189.99 13.7319H1239.19L1268.84 26.0479ZM1186.46 12.0952L1164.1 1.63669H1210.06L1235.22 12.0952H1186.46ZM277.75 13.7319L248.15 26.0479H196.933L229.424 13.7319H277.75ZM244.149 27.6846L209.037 42.2839H154.119L192.632 27.6846H244.149ZM248.57 27.6846H301.528L270.317 42.2839H213.448L248.57 27.6846ZM266.816 43.9206L229.934 61.1714H167.993L209.517 43.9206H266.816ZM178.787 85.0834L125.289 110.1H50.1841L110.414 85.0834H178.787ZM182.788 85.0834H251.411L204.596 110.1H129.35L182.788 85.0834ZM255.072 85.0834H324.095L283.962 110.1H208.317L255.072 85.0834ZM327.376 85.0834H396.53L363.188 110.1H287.303L327.376 85.0834ZM399.5 85.0834H469.424L442.675 110.1H366.119L399.5 85.0834ZM472.025 85.0834H541.868L521.801 110.1H445.326L472.025 85.0834ZM544.259 85.0834H614.492L601.118 110.1H524.242L544.259 85.0834ZM616.673 85.0834H687.126L680.434 110.1H603.358L616.673 85.0834ZM689.167 85.0834H759.631V110.1H682.545L689.167 85.0834ZM761.631 85.0834H832.095L838.777 110.1H761.691L761.631 85.0834ZM834.145 85.0834H904.509L917.883 110.1H840.858L834.145 85.0834ZM906.689 85.0834H976.893L996.9 110.1H920.024L906.689 85.0834ZM979.284 85.0834H1049.24L1076 110.1H999.4L979.284 85.0834ZM1051.9 85.0834H1121.57L1155.01 110.1H1078.66L1051.9 85.0834ZM1124.54 85.0834H1193.89L1234.02 110.1H1157.99L1124.54 85.0834ZM1197.19 85.0834H1266.21L1313.04 110.1H1237.38L1197.19 85.0834ZM1269.85 85.0834H1338.51L1392.02 110.1H1316.71L1269.85 85.0834ZM1342.5 85.0834H1410.83L1471.04 110.1H1396.01L1342.5 85.0834ZM1415.25 85.0834H1478.7L1544.27 110.1H1475.56L1415.25 85.0834ZM1287.5 12.0952H1239.7L1214.47 1.63669H1260.04L1287.5 12.0952ZM149.777 43.9206H205.136L163.612 61.1714H104.282L149.777 43.9206ZM41.1911 85.0834H105.993L45.7626 110.1H-24.8109L41.1911 85.0834ZM-110.479 142.564L-29.1324 111.729H41.8213L-32.4135 142.564H-110.479ZM-27.942 142.564L46.2928 111.729H121.868L55.876 142.564H-27.942ZM59.9573 142.564L125.899 111.729H201.645L143.885 142.564H59.9573ZM147.597 142.564L205.296 111.729H281.431L231.915 142.564H147.597ZM235.266 142.564L284.732 111.729H361.018L319.764 142.564H235.266ZM322.785 142.564L363.989 111.729H441.014L408.003 142.564H322.785ZM410.654 142.564L443.665 111.729H520.641L495.833 142.564H410.654ZM498.233 142.564L522.952 111.729H600.267L583.822 142.564H498.233ZM586.013 142.564L602.498 111.729H680.064L671.811 142.564H586.013ZM673.872 142.564L682.115 111.729H759.701V142.564H673.872ZM761.701 142.564V111.737H839.287L847.53 142.572L761.701 142.564ZM849.58 142.564L841.348 111.737H918.844L935.309 142.564H849.58ZM937.5 142.564L921.014 111.729H998.34L1023.06 142.564H937.5ZM1025.46 142.564L1000.73 111.729H1077.82L1110.83 142.564H1025.46ZM1113.49 142.564L1080.48 111.729H1157.27L1198.47 142.564H1113.49ZM1201.52 142.564L1160.29 111.729H1236.77L1286.17 142.564H1201.52ZM1289.55 142.564L1240.08 111.729H1316.22L1373.84 142.564H1289.55ZM1377.58 142.564L1319.88 111.729H1395.53L1461.47 142.564H1377.58ZM1465.61 142.564L1399.53 111.737H1475.01L1549.24 142.564H1465.61ZM1553.76 142.564L1479.55 111.729H1548.58L1629.44 142.564H1553.76Z" fill="url(#paint0_linear_344_888)"/>
<defs>
<linearGradient id="paint0_linear_344_888" x1="757.99" y1="178.334" x2="757.99" y2="10.7121" gradientUnits="userSpaceOnUse">
<stop stop-color="#2A2D34" stop-opacity="0"/>
<stop offset="0.328125" stop-color="#3B84F4"/>
<stop offset="1" stop-color="#1A1E61" stop-opacity="0"/>
</linearGradient>
</defs>
</svg>
